<svg width="79" height="16" viewBox="0 0 79 16" fill="none" xmlns="http://www.w3.org/2000/svg">
<g clip-path="url(#clip0_1_2)">
<g filter="url(#filter0_d_1_2)">
<path d="M17.516 8.388C17.516 9.948 17.18 11.012 16.508 11.58L16.28 11.304C16.864 10.808 17.156 9.836 17.156 8.388V7.212C17.156 6.548 17.1 5.992 16.988 5.544C16.876 5.088 16.708 4.74 16.484 4.5C16.26 4.26 16.008 4.092 15.728 3.996C15.448 3.892 15.112 3.84 14.72 3.84C14.328 3.84 13.992 3.892 13.712 3.996C13.432 4.092 13.18 4.26 12.956 4.5C12.732 4.74 12.564 5.088 12.452 5.544C12.34 5.992 12.284 6.548 12.284 7.212V8.388C12.284 9.052 12.34 9.612 12.452 10.068C12.564 10.516 12.732 10.86 12.956 11.1C13.18 11.34 13.432 11.512 13.712 11.616C13.992 11.712 14.328 11.76 14.72 11.76C14.72 12.648 14.86 13.248 15.14 13.56C15.428 13.88 15.872 14.04 16.472 14.04V14.4C15.824 14.4 15.324 14.24 14.972 13.92C14.62 13.6 14.42 12.996 14.372 12.108C13.516 12.036 12.892 11.7 12.5 11.1C12.116 10.492 11.924 9.588 11.924 8.388V7.212C11.924 5.932 12.144 4.992 12.584 4.392C13.024 3.784 13.736 3.48 14.72 3.48C15.704 3.48 16.416 3.784 16.856 4.392C17.296 4.992 17.516 5.932 17.516 7.212V8.388ZM19.8806 11.64H24.2966L21.7526 4.644L19.0766 12H18.6926L21.7526 3.588L24.8126 12H19.8806V11.64ZM32.6824 9.408L32.5024 9.096L33.1744 8.712C33.7264 8.408 34.0024 7.924 34.0024 7.26C34.0024 6.02 33.0584 5.4 31.1704 5.4H30.0664V14.4H29.7064V5.04H31.1704C32.2264 5.04 33.0224 5.236 33.5584 5.628C34.0944 6.012 34.3624 6.556 34.3624 7.26C34.3624 8.06 34.0264 8.648 33.3544 9.024L32.6824 9.408ZM39.562 5.412C39.29 5.324 38.954 5.28 38.554 5.28C38.154 5.28 37.818 5.324 37.546 5.412C37.274 5.492 37.022 5.648 36.79 5.88C36.566 6.104 36.398 6.436 36.286 6.876C36.174 7.308 36.118 7.856 36.118 8.52C36.118 9.184 36.174 9.736 36.286 10.176C36.398 10.608 36.566 10.94 36.79 11.172C37.022 11.396 37.274 11.552 37.546 11.64C37.818 11.72 38.154 11.76 38.554 11.76C38.954 11.76 39.29 11.72 39.562 11.64C39.834 11.552 40.082 11.396 40.306 11.172C40.538 10.94 40.71 10.608 40.822 10.176C40.934 9.736 40.99 9.184 40.99 8.52C40.99 7.856 40.934 7.308 40.822 6.876C40.71 6.436 40.538 6.104 40.306 5.88C40.082 5.648 39.834 5.492 39.562 5.412ZM40.702 11.268C40.27 11.836 39.554 12.12 38.554 12.12C37.554 12.12 36.838 11.836 36.406 11.268C35.974 10.7 35.758 9.784 35.758 8.52C35.758 7.256 35.974 6.34 36.406 5.772C36.838 5.204 37.554 4.92 38.554 4.92C39.554 4.92 40.27 5.204 40.702 5.772C41.134 6.34 41.35 7.256 41.35 8.52C41.35 9.784 41.134 10.7 40.702 11.268ZM46.2633 8.508L47.8953 12H47.4993L45.8193 8.4C45.8353 8.392 45.9033 8.36 46.0233 8.304C46.1513 8.24 46.2393 8.196 46.2873 8.172C46.3353 8.14 46.4153 8.088 46.5273 8.016C46.6393 7.944 46.7233 7.876 46.7793 7.812C46.8353 7.74 46.8953 7.66 46.9593 7.572C47.0313 7.476 47.0833 7.372 47.1153 7.26C47.1473 7.14 47.1633 7.012 47.1633 6.876C47.1633 6.372 46.9233 6 46.4433 5.76C45.9633 5.52 45.3673 5.4 44.6553 5.4H43.6953V12H43.3353V5.04H44.6553C45.5993 5.04 46.3113 5.204 46.7913 5.532C47.2793 5.86 47.5233 6.308 47.5233 6.876C47.5233 7.244 47.3993 7.572 47.1513 7.86C46.9033 8.14 46.6073 8.356 46.2633 8.508ZM54.0228 5.04V5.4H51.5028V12H51.1428V5.4H48.6228V5.04H54.0228ZM56.0416 11.64H59.9536L57.4936 5.844L54.8776 12H54.4936L57.4936 4.92L60.4936 12H56.0416V11.64ZM65.8707 11.64V12H61.8627V5.04H62.2227V11.64H65.8707Z" fill="url(#paint0_linear_1_2)"/>
<path d="M16.508 11.58L16.1225 11.8984L16.4446 12.2883L16.8308 11.9619L16.508 11.58ZM16.28 11.304L15.9563 10.9229L15.5804 11.2422L15.8945 11.6224L16.28 11.304ZM16.988 5.544L16.5024 5.66326L16.5029 5.66527L16.988 5.544ZM16.484 4.5L16.1185 4.84116L16.1185 4.84116L16.484 4.5ZM15.728 3.996L15.5539 4.46486L15.5658 4.46897L15.728 3.996ZM13.712 3.996L13.8742 4.46912L13.8861 4.46471L13.712 3.996ZM12.956 4.5L13.3215 4.84116L13.3215 4.84116L12.956 4.5ZM12.452 5.544L12.9371 5.66527L12.9376 5.66326L12.452 5.544ZM12.452 10.068L11.9664 10.1873L11.9669 10.1893L12.452 10.068ZM12.956 11.1L12.5905 11.4412L12.5905 11.4412L12.956 11.1ZM13.712 11.616L13.5379 12.0849L13.5498 12.089L13.712 11.616ZM14.72 11.76H15.22V11.26H14.72V11.76ZM15.14 13.56L14.7679 13.894L14.7684 13.8945L15.14 13.56ZM16.472 14.04H16.972V13.54H16.472V14.04ZM16.472 14.4V14.9H16.972V14.4H16.472ZM14.972 13.92L15.3083 13.55L15.3083 13.55L14.972 13.92ZM14.372 12.108L14.8713 12.081L14.8478 11.6463L14.4139 11.6098L14.372 12.108ZM12.5 11.1L12.0772 11.367L12.0814 11.3735L12.5 11.1ZM12.584 4.392L12.9872 4.68769L12.9891 4.68513L12.584 4.392ZM16.856 4.392L16.4509 4.68514L16.4528 4.68768L16.856 4.392ZM17.016 8.388C17.016 9.90822 16.6828 10.7776 16.1852 11.1981L16.8308 11.9619C17.6772 11.2464 18.016 9.98778 18.016 8.388H17.016ZM16.8935 11.2616L16.6655 10.9856L15.8945 11.6224L16.1225 11.8984L16.8935 11.2616ZM16.6037 11.6851C17.3664 11.0373 17.656 9.86328 17.656 8.388H16.656C16.656 9.80872 16.3616 10.5787 15.9563 10.9229L16.6037 11.6851ZM17.656 8.388V7.212H16.656V8.388H17.656ZM17.656 7.212C17.656 6.5233 17.5983 5.9235 17.4731 5.42273L16.5029 5.66527C16.6017 6.0605 16.656 6.5727 16.656 7.212H17.656ZM17.4736 5.42474C17.3494 4.91931 17.1516 4.4825 16.8495 4.15884L16.1185 4.84116C16.2644 4.9975 16.4026 5.25669 16.5024 5.66326L17.4736 5.42474ZM16.8495 4.15884C16.5758 3.86555 16.2559 3.64843 15.8902 3.52303L15.5658 4.46897C15.7601 4.53557 15.9442 4.65445 16.1185 4.84116L16.8495 4.15884ZM15.9021 3.52729C15.552 3.39726 15.1539 3.34 14.72 3.34V4.34C15.0701 4.34 15.344 4.38674 15.5539 4.46471L15.9021 3.52729ZM14.72 3.34C14.2861 3.34 13.888 3.39726 13.5379 3.52729L13.8861 4.46471C14.096 4.38674 14.3699 4.34 14.72 4.34V3.34ZM13.5498 3.52303C13.1841 3.64843 12.8642 3.86555 12.5905 4.15884L13.3215 4.84116C13.4958 4.65445 13.6799 4.53557 13.8742 4.46897L13.5498 3.52303ZM12.5905 4.15884C12.2884 4.4825 12.0906 4.91931 11.9664 5.42474L12.9376 5.66326C13.0374 5.25669 13.1756 4.9975 13.3215 4.84116L12.5905 4.15884ZM11.9669 5.42273C11.8417 5.9235 11.784 6.5233 11.784 7.212H12.784C12.784 6.5727 12.8383 6.0605 12.9371 5.66527L11.9669 5.42273ZM11.784 7.212V8.388H12.784V7.212H11.784ZM11.784 8.388C11.784 9.07706 11.8418 9.67986 11.9664 10.1873L12.9376 9.94874C12.8382 9.54414 12.784 9.02694 12.784 8.388H11.784ZM11.9669 10.1893C12.0916 10.6879 12.2899 11.1191 12.5905 11.4412L13.3215 10.7588C13.1741 10.6009 13.0364 10.3441 12.9371 9.94673L11.9669 10.1893ZM12.5905 11.4412C12.8622 11.7323 13.1781 11.9511 13.5379 12.0847L13.8861 11.1473C13.6859 11.0729 13.4978 10.9477 13.3215 10.7588L12.5905 11.4412ZM13.5498 12.089C13.8959 12.2076 14.2896 12.26 14.72 12.26V11.26C14.3664 11.26 14.0881 11.2164 13.8742 11.143L13.5498 12.089ZM14.22 11.76C14.22 12.227 14.2565 12.64 14.3381 12.9896C14.4189 13.3358 14.5514 13.6528 14.7679 13.894L15.5121 13.226C15.4486 13.1552 15.3711 13.0162 15.3119 12.7624C15.2535 12.512 15.22 12.181 15.22 11.76H14.22ZM14.7684 13.8945C15.1839 14.3562 15.7879 14.54 16.472 14.54V13.54C15.9561 13.54 15.6721 13.4038 15.5116 13.2255L14.7684 13.8945ZM15.972 14.04V14.4H16.972V14.04H15.972ZM16.472 13.9C15.9029 13.9 15.5394 13.7601 15.3083 13.55L14.6357 14.29C15.1086 14.7199 15.7451 14.9 16.472 14.9V13.9ZM15.3083 13.55C15.1095 13.3693 14.9177 12.9399 14.8713 12.081L13.8727 12.135C13.9223 13.0521 14.1305 13.8307 14.6357 14.29L15.3083 13.55ZM14.4139 11.6098C13.6774 11.5478 13.2093 11.2715 12.9186 10.8265L12.0814 11.3735C12.5747 12.1285 13.3546 12.5242 14.3301 12.6062L14.4139 11.6098ZM12.9227 10.833C12.6127 10.342 12.424 9.54996 12.424 8.388H11.424C11.424 9.62604 11.6193 10.642 12.0773 11.367L12.9227 10.833ZM12.424 8.388V7.212H11.424V8.388H12.424ZM12.424 7.212C12.424 5.96976 12.6412 5.15953 12.9872 4.68768L12.1808 4.09632C11.6468 4.82447 11.424 5.89424 11.424 7.212H12.424ZM12.9891 4.68513C13.307 4.24586 13.8416 3.98 14.72 3.98V2.98C13.6304 2.98 12.741 3.32214 12.1789 4.09887L12.9891 4.68513ZM14.72 3.98C15.5984 3.98 16.133 4.24586 16.4509 4.68513L17.2611 4.09887C16.699 3.32214 15.8096 2.98 14.72 2.98V3.98ZM16.4528 4.68768C16.7988 5.15953 17.016 5.96976 17.016 7.212H18.016C18.016 5.89424 17.7932 4.82447 17.2592 4.09632L16.4528 4.68768ZM17.016 7.212V8.388H18.016V7.212H17.016ZM19.8806 11.64V11.14H19.3806V11.64H19.8806ZM24.2966 11.64V12.14H25.0104L24.7665 11.4691L24.2966 11.64ZM21.7526 4.644L22.2225 4.47313L21.7527 3.18118L21.2827 4.47307L21.7526 4.644ZM19.0766 12V12.5H19.4267L19.5464 12.1709L19.0766 12ZM18.6926 12L18.2227 11.8291L17.9786 12.5H18.6926V12ZM21.7526 3.588L22.2224 3.41707L21.7526 2.12537L21.2827 3.41707L21.7526 3.588ZM24.8126 12V12.5H25.5265L25.2824 11.8291L24.8126 12ZM19.8806 12H19.3806V12.5H19.8806V12ZM19.8806 12.14H24.2966V11.14H19.8806V12.14ZM24.7665 11.4691L22.2225 4.47313L21.2827 4.81487L23.8267 11.8109L24.7665 11.4691ZM21.2827 4.47307L18.6067 11.8291L19.5464 12.1709L22.2224 4.81493L21.2827 4.47307ZM19.0766 11.5H18.6926V12.5H19.0766V11.5ZM19.1624 12.1709L22.2224 3.75892L21.2827 3.41707L18.2227 11.8291L19.1624 12.1709ZM21.2827 3.75892L24.3427 12.1709L25.2824 11.8291L22.2224 3.41707L21.2827 3.75892ZM24.8126 11.5H19.8806V12.5H24.8126V11.5ZM20.3806 12V11.64H19.3806V12H20.3806ZM32.6824 9.408L32.2493 9.65786L32.4981 10.0892L32.9305 9.84212L32.6824 9.408ZM32.5024 9.096L32.2543 8.66188L31.8184 8.91098L32.0693 9.34586L32.5024 9.096ZM33.1744 8.712L32.9332 8.27397L32.9263 8.27788L33.1744 8.712ZM30.0664 5.4V4.9H29.5664V5.4H30.0664ZM30.0664 14.4V14.9H30.5664V14.4H30.0664ZM29.7064 14.4H29.2064V14.9H29.7064V14.4ZM29.7064 5.04V4.54H29.2064V5.04H29.7064ZM33.5584 5.628L33.2632 6.0316L33.2672 6.03446L33.5584 5.628ZM33.3544 9.024L33.1103 8.58764L33.1063 8.58988L33.3544 9.024ZM33.1155 9.15814L32.9355 8.84614L32.0693 9.34586L32.2493 9.65786L33.1155 9.15814ZM32.7505 9.53012L33.4225 9.14612L32.9263 8.27788L32.2543 8.66188L32.7505 9.53012ZM33.4156 9.14997C33.7615 8.95951 34.0404 8.70079 34.2297 8.36868C34.4184 8.03794 34.5024 7.66217 34.5024 7.26H33.5024C33.5024 7.52183 33.4485 7.72006 33.3611 7.87332C33.2744 8.02521 33.1394 8.16049 32.9332 8.27403L33.4156 9.14997ZM34.5024 7.26C34.5024 6.49113 34.1972 5.85975 33.5689 5.44708C32.9772 5.05849 32.1532 4.9 31.1704 4.9V5.9C32.0756 5.9 32.6676 6.05151 33.0199 6.28292C33.3356 6.49025 33.5024 6.78887 33.5024 7.26H34.5024ZM31.1704 4.9H30.0664V5.9H31.1704V4.9ZM29.5664 5.4V14.4H30.5664V5.4H29.5664ZM30.0664 13.9H29.7064V14.9H30.0664V13.9ZM30.2064 14.4V5.04H29.2064V14.4H30.2064ZM29.7064 5.54H31.1704V4.54H29.7064V5.54ZM31.1704 5.54C32.1783 5.54 32.8501 5.72947 33.2632 6.03158L33.8536 5.22441C33.1947 4.74253 32.2745 4.54 31.1704 4.54V5.54ZM33.2672 6.03446C33.6621 6.31734 33.8624 6.70441 33.8624 7.26H34.8624C34.8624 6.40759 34.5267 5.70666 33.8496 5.22154L33.2672 6.03446ZM33.8624 7.26C33.8624 7.58884 33.7939 7.84714 33.6763 8.05293C33.5593 8.25774 33.3781 8.43779 33.1103 8.58766L33.5986 9.46034C34.0027 9.23421 34.3256 8.93226 34.5445 8.54907C34.7629 8.16685 34.8624 7.73116 34.8624 7.26H33.8624ZM33.1063 8.58988L32.4343 8.97388L32.9305 9.84212L33.6025 9.45812L33.1063 8.58988ZM39.562 5.412L39.408 5.88789L39.4209 5.89168L39.562 5.412ZM37.546 5.412L37.6871 5.89186L37.6999 5.88772L37.546 5.412ZM36.79 5.88L36.4364 5.52645L36.4364 5.52645L36.79 5.88ZM36.286 6.876L36.77 7.00148L36.7705 6.99934L36.286 6.876ZM36.286 10.176L35.8014 10.2993L35.802 10.3015L36.286 10.176ZM36.79 11.172L36.4303 11.5193L36.4364 11.5256L36.4427 11.5317L36.79 11.172ZM37.546 11.64L37.392 12.1159L37.4049 12.1197L37.546 11.64ZM39.562 11.64L39.7031 12.1199L39.7159 12.1157L39.562 11.64ZM40.306 11.172L40.6595 11.5256L40.6595 11.5256L40.306 11.172ZM40.822 10.176L41.306 10.3015L41.3065 10.2993L40.822 10.176ZM40.822 6.876L40.3374 6.99934L40.338 7.00148L40.822 6.876ZM40.306 5.88L39.9463 6.2273L39.9524 6.23361L39.9587 6.2397L40.306 5.88ZM40.702 11.268L40.304 10.9653L40.304 10.9653L40.702 11.268ZM36.406 11.268L36.8039 10.9653L36.8039 10.9653L36.406 11.268ZM36.406 5.772L36.008 5.46932L36.008 5.46932L36.406 5.772ZM40.702 5.772L41.0999 5.46932L41.0999 5.46932L40.702 5.772ZM39.7159 4.93628C39.3787 4.82719 38.987 4.78 38.554 4.78V5.78C38.9209 5.78 39.2012 5.82081 39.4081 5.88772L39.7159 4.93628ZM38.554 4.78C38.1209 4.78 37.7292 4.82719 37.3921 4.93628L37.6999 5.88772C37.9067 5.82081 38.187 5.78 38.554 5.78V4.78ZM37.4049 4.93232C37.0408 5.0394 36.7182 5.24466 36.4364 5.52645L37.1435 6.23355C37.3257 6.05134 37.5071 5.9446 37.6871 5.89168L37.4049 4.93232ZM36.4364 5.52645C36.1271 5.83577 35.9265 6.26118 35.8014 6.75266L36.7705 6.99934C36.8694 6.61082 37.0048 6.37223 37.1435 6.23355L36.4364 5.52645ZM35.802 6.75052C35.6755 7.23817 35.618 7.83211 35.618 8.52H36.618C36.618 7.87989 36.6724 7.37783 36.77 7.00148L35.802 6.75052ZM35.618 8.52C35.618 9.20831 35.6756 9.80515 35.8014 10.2993L36.7705 10.0527C36.6723 9.66685 36.618 9.15969 36.618 8.52H35.618ZM35.802 10.3015C35.9277 10.7864 36.1278 11.206 36.4303 11.5193L37.1497 10.8247C37.0041 10.674 36.8682 10.4296 36.77 10.0505L35.802 10.3015ZM36.4427 11.5317C36.7224 11.8018 37.0388 12.0014 37.3921 12.1157L37.6999 11.1643C37.5091 11.1026 37.3215 10.9902 37.1373 10.8123L36.4427 11.5317ZM37.4049 12.1197C37.7372 12.2174 38.1241 12.26 38.554 12.26V11.26C38.1838 11.26 37.8987 11.2226 37.6871 11.1603L37.4049 12.1197ZM38.554 12.26C38.9838 12.26 39.3707 12.2174 39.7031 12.1197L39.4209 11.1603C39.2092 11.2226 38.9241 11.26 38.554 11.26V12.26ZM39.7159 12.1157C40.071 12.0008 40.3857 11.7994 40.6595 11.5256L39.9524 10.8184C39.7782 10.9926 39.5969 11.1032 39.4081 11.1643L39.7159 12.1157ZM40.6595 11.5256C40.9733 11.2118 41.1793 10.7899 41.306 10.3015L40.338 10.0505C40.2406 10.4261 40.1026 10.6682 39.9524 10.8184L40.6595 11.5256ZM41.3065 10.2993C41.4323 9.80515 41.49 9.20831 41.49 8.52H40.49C40.49 9.15969 40.4356 9.66685 40.3374 10.0527L41.3065 10.2993ZM41.49 8.52C41.49 7.83211 41.4324 7.23817 41.306 6.75052L40.338 7.00148C40.4355 7.37783 40.49 7.87989 40.49 8.52H41.49ZM41.3065 6.75266C41.1805 6.25768 40.974 5.82999 40.6533 5.5203L39.9587 6.2397C40.1019 6.378 40.2394 6.61432 40.3374 6.99934L41.3065 6.75266ZM40.6657 5.5327C40.3899 5.24708 40.069 5.03996 39.7031 4.93232L39.4209 5.89168C39.5989 5.94404 39.774 6.04892 39.9463 6.2273L40.6657 5.5327ZM40.304 10.9653C40.0006 11.3642 39.4643 11.62 38.554 11.62V12.62C39.6436 12.62 40.5393 12.3078 41.0999 11.5707L40.304 10.9653ZM38.554 11.62C37.6436 11.62 37.1073 11.3642 36.8039 10.9653L36.008 11.5707C36.5686 12.3078 37.4643 12.62 38.554 12.62V11.62ZM36.8039 10.9653C36.4724 10.5294 36.258 9.7495 36.258 8.52H35.258C35.258 9.8185 35.4756 10.8706 36.008 11.5707L36.8039 10.9653ZM36.258 8.52C36.258 7.2905 36.4724 6.51062 36.8039 6.07468L36.008 5.46932C35.4756 6.16938 35.258 7.2215 35.258 8.52H36.258ZM36.8039 6.07468C37.1073 5.67583 37.6436 5.42 38.554 5.42V4.42C37.4643 4.42 36.5686 4.73216 36.008 5.46932L36.8039 6.07468ZM38.554 5.42C39.4643 5.42 40.0006 5.67583 40.304 6.07468L41.0999 5.46932C40.5393 4.73216 39.6436 4.42 38.554 4.42V5.42ZM40.304 6.07468C40.6356 6.51062 40.85 7.2905 40.85 8.52H41.85C41.85 7.2215 41.6324 6.16938 41.0999 5.46932L40.304 6.07468ZM40.85 8.52C40.85 9.7495 40.6356 10.5294 40.304 10.9653L41.0999 11.5707C41.6324 10.8706 41.85 9.8185 41.85 8.52H40.85ZM46.2633 8.508L46.0612 8.05066L45.5941 8.25705L45.8103 8.7197L46.2633 8.508ZM47.8953 12V12.5H48.6809L48.3483 11.7883L47.8953 12ZM47.4993 12L47.0462 12.2114L47.1809 12.5H47.4993V12ZM45.8193 8.4L45.5957 7.95279L45.1604 8.17043L45.3662 8.61144L45.8193 8.4ZM46.0233 8.304L46.2348 8.75726L46.2469 8.75121L46.0233 8.304ZM46.2873 8.172L46.5109 8.61921L46.5388 8.60529L46.5647 8.58802L46.2873 8.172ZM46.5273 8.016L46.7977 8.43659L46.7977 8.43659L46.5273 8.016ZM46.7793 7.812L47.1556 8.14125L47.1651 8.13038L47.174 8.11897L46.7793 7.812ZM46.9593 7.572L46.5593 7.27197L46.5549 7.27791L46.9593 7.572ZM47.1153 7.26L47.5962 7.39738L47.5984 7.38883L47.1153 7.26ZM46.4433 5.76L46.6669 5.31279L46.6669 5.31279L46.4433 5.76ZM43.6953 5.4V4.9H43.1953V5.4H43.6953ZM43.6953 12V12.5H44.1953V12H43.6953ZM43.3353 12H42.8353V12.5H43.3353V12ZM43.3353 5.04V4.54H42.8353V5.04H43.3353ZM46.7913 5.532L46.5092 5.94483L46.5124 5.94698L46.7913 5.532ZM47.1513 7.86L47.5256 8.19155L47.5302 8.18626L47.1513 7.86ZM45.8103 8.7197L47.4423 12.2117L48.3483 11.7883L46.7163 8.2963L45.8103 8.7197ZM47.8953 11.5H47.4993V12.5H47.8953V11.5ZM47.9524 11.7886L46.2724 8.18856L45.3662 8.61144L47.0462 12.2114L47.9524 11.7886ZM46.0429 8.84721C46.0421 8.84764 46.0453 8.84605 46.056 8.84093C46.0656 8.83639 46.0785 8.83025 46.0952 8.82241C46.1285 8.80675 46.1749 8.78501 46.2348 8.75709L45.8119 7.85091C45.6964 7.9048 45.6195 7.94087 45.5957 7.95279L46.0429 8.84721ZM46.2469 8.75121C46.3749 8.68721 46.4629 8.64321 46.5109 8.61921L46.0637 7.72479C46.0157 7.74879 45.9277 7.79279 45.7997 7.85679L46.2469 8.75121ZM46.5647 8.58802C46.6089 8.55854 46.6858 8.50851 46.7977 8.43659L46.2569 7.59541C46.1448 7.66749 46.0617 7.72146 46.01 7.75598L46.5647 8.58802ZM46.7977 8.43659C46.9295 8.35184 47.0565 8.25454 47.1556 8.14125L46.403 7.48275C46.3902 7.49746 46.3491 7.53616 46.2569 7.59541L46.7977 8.43659ZM47.174 8.11897C47.2338 8.04201 47.2971 7.95763 47.3637 7.86609L46.5549 7.27791C46.4935 7.36237 46.4368 7.43799 46.3846 7.50503L47.174 8.11897ZM47.3593 7.872C47.4668 7.72867 47.5468 7.56983 47.5961 7.39736L46.6346 7.12264C46.6198 7.17417 46.5958 7.22333 46.5593 7.272L47.3593 7.872ZM47.5984 7.38883C47.6426 7.22303 47.6633 7.05141 47.6633 6.876H46.6633C46.6633 6.97259 46.652 7.05697 46.6322 7.13117L47.5984 7.38883ZM47.6633 6.876C47.6633 6.54153 47.5825 6.22551 47.4035 5.94794C47.2255 5.67217 46.97 5.46434 46.6669 5.31279L46.2197 6.20721C46.3966 6.29566 46.5011 6.39383 46.5632 6.49006C46.6241 6.58449 46.6633 6.70647 46.6633 6.876H47.6633ZM46.6669 5.31279C46.0986 5.02864 45.4206 4.9 44.6553 4.9V5.9C45.314 5.9 45.828 6.01136 46.2197 6.20721L46.6669 5.31279ZM44.6553 4.9H43.6953V5.9H44.6553V4.9ZM43.1953 5.4V12H44.1953V5.4H43.1953ZM43.6953 11.5H43.3353V12.5H43.6953V11.5ZM43.8353 12V5.04H42.8353V12H43.8353ZM43.3353 5.54H44.6553V4.54H43.3353V5.54ZM44.6553 5.54C45.5558 5.54 46.1495 5.69904 46.5092 5.94482L47.0734 5.11918C46.4731 4.70896 45.6428 4.54 44.6553 4.54V5.54ZM46.5124 5.94698C46.868 6.18601 47.0233 6.48141 47.0233 6.876H48.0233C48.0233 6.13459 47.6906 5.53399 47.0702 5.11702L46.5124 5.94698ZM47.0233 6.876C47.0233 7.12003 46.9451 7.33323 46.7724 7.53374L47.5302 8.18626C47.8535 7.81077 48.0233 7.36797 48.0233 6.876H47.0233ZM46.777 7.52848C46.577 7.75434 46.3398 7.92756 46.0612 8.05066L46.4654 8.96534C46.8748 8.78444 47.2297 8.52566 47.5256 8.19152L46.777 7.52848ZM54.0228 5.04H54.5228V4.54H54.0228V5.04ZM54.0228 5.4V5.9H54.5228V5.4H54.0228ZM51.5028 5.4V4.9H51.0028V5.4H51.5028ZM51.5028 12V12.5H52.0028V12H51.5028ZM51.1428 12H50.6428V12.5H51.1428V12ZM51.1428 5.4H51.6428V4.9H51.1428V5.4ZM48.6228 5.4H48.1228V5.9H48.6228V5.4ZM48.6228 5.04V4.54H48.1228V5.04H48.6228ZM53.5228 5.04V5.4H54.5228V5.04H53.5228ZM54.0228 4.9H51.5028V5.9H54.0228V4.9ZM51.0028 5.4V12H52.0028V5.4H51.0028ZM51.5028 11.5H51.1428V12.5H51.5028V11.5ZM51.6428 12V5.4H50.6428V12H51.6428ZM51.1428 4.9H48.6228V5.9H51.1428V4.9ZM49.1228 5.4V5.04H48.1228V5.4H49.1228ZM48.6228 5.54H54.0228V4.54H48.6228V5.54ZM56.0416 11.64V11.14H55.5416V11.64H56.0416ZM59.9536 11.64V12.14H60.709L60.4139 11.4447L59.9536 11.64ZM57.4936 5.844L57.9539 5.64865L57.4939 4.5649L57.0335 5.64845L57.4936 5.844ZM54.8776 12V12.5H55.2084L55.3378 12.1956L54.8776 12ZM54.4936 12L54.0332 11.8049L53.7387 12.5H54.4936V12ZM57.4936 4.92L57.954 4.72493L57.4936 3.63844L57.0332 4.72493L57.4936 4.92ZM60.4936 12V12.5H61.2485L60.954 11.8049L60.4936 12ZM56.0416 12H55.5416V12.5H56.0416V12ZM56.0416 12.14H59.9536V11.14H56.0416V12.14ZM60.4139 11.4447L57.9539 5.64865L57.0334 6.03935L59.4934 11.8353L60.4139 11.4447ZM57.0335 5.64845L54.4175 11.8044L55.3378 12.1956L57.9538 6.03955L57.0335 5.64845ZM54.8776 11.5H54.4936V12.5H54.8776V11.5ZM54.954 12.1951L57.954 5.11507L57.0332 4.72493L54.0332 11.8049L54.954 12.1951ZM57.0332 5.11507L60.0332 12.1951L60.954 11.8049L57.954 4.72493L57.0332 5.11507ZM60.4936 11.5H56.0416V12.5H60.4936V11.5ZM56.5416 12V11.64H55.5416V12H56.5416ZM65.8707 11.64H66.3707V11.14H65.8707V11.64ZM65.8707 12V12.5H66.3707V12H65.8707ZM61.8627 12H61.3627V12.5H61.8627V12ZM61.8627 5.04V4.54H61.3627V5.04H61.8627ZM62.2227 5.04H62.7227V4.54H62.2227V5.04ZM62.2227 11.64H61.7227V12.14H62.2227V11.64ZM65.3707 11.64V12H66.3707V11.64H65.3707ZM65.8707 11.5H61.8627V12.5H65.8707V11.5ZM62.3627 12V5.04H61.3627V12H62.3627ZM61.8627 5.54H62.2227V4.54H61.8627V5.54ZM61.7227 5.04V11.64H62.7227V5.04H61.7227ZM62.2227 12.14H65.8707V11.14H62.2227V12.14Z" fill="url(#paint1_linear_1_2)"/>
</g>
</g>
<defs>
<filter id="filter0_d_1_2" x="-0.0759888" y="-6.51999" width="81.9467" height="38.92" filterUnits="userSpaceOnUse" color-interpolation-filters="sRGB">
<feFlood flood-opacity="0" result="BackgroundImageFix"/>
<feColorMatrix in="SourceAlpha" type="matrix" values="0 0 0 0 0 0 0 0 0 0 0 0 0 0 0 0 0 0 127 0" result="hardAlpha"/>
<feOffset dx="2" dy="4"/>
<feGaussianBlur stdDeviation="7"/>
<feComposite in2="hardAlpha" operator="out"/>
<feColorMatrix type="matrix" values="0 0 0 0 0 0 0 0 0 0 0 0 0 0 0 0 0 0 1 0"/>
<feBlend mode="normal" in2="BackgroundImageFix" result="effect1_dropShadow_1_2"/>
<feBlend mode="normal" in="SourceGraphic" in2="effect1_dropShadow_1_2" result="shape"/>
</filter>
<linearGradient id="paint0_linear_1_2" x1="41" y1="1" x2="41" y2="15" gradientUnits="userSpaceOnUse">
<stop offset="0.0208333"/>
<stop offset="0.505208" stop-color="#672A2A"/>
<stop offset="0.817708" stop-color="#FF0505"/>
</linearGradient>
<linearGradient id="paint1_linear_1_2" x1="41" y1="1" x2="41" y2="15" gradientUnits="userSpaceOnUse">
<stop stop-color="#1C25FE"/>
<stop offset="1" stop-color="#FF0D1B"/>
</linearGradient>
<clipPath id="clip0_1_2">
<rect width="79" height="16" fill="white"/>
</clipPath>
</defs>
</svg>
